<svg xmlns="http://www.w3.org/2000/svg" viewBox="0 0 100 100" fill="currentColor">
  <!-- Buckeye Leaf - 5 leaflets in a palmate arrangement -->
  <g>
    <!-- Center leaflet (largest) -->
    <path d="M50 5 C45 25, 35 35, 35 50 C35 65, 42 75, 50 85 C58 75, 65 65, 65 50 C65 35, 55 25, 50 5" />
    <!-- Left outer leaflet -->
    <path d="M20 35 C25 40, 28 45, 32 55 C36 65, 42 72, 48 78 C40 70, 35 60, 30 50 C25 40, 22 35, 20 35" />
    <!-- Left inner leaflet -->
    <path d="M30 20 C32 30, 35 40, 38 52 C41 64, 45 73, 50 82 C44 72, 40 60, 37 48 C34 36, 32 26, 30 20" />
    <!-- Right inner leaflet -->
    <path d="M70 20 C68 30, 65 40, 62 52 C59 64, 55 73, 50 82 C56 72, 60 60, 63 48 C66 36, 68 26, 70 20" />
    <!-- Right outer leaflet -->
    <path d="M80 35 C75 40, 72 45, 68 55 C64 65, 58 72, 52 78 C60 70, 65 60, 70 50 C75 40, 78 35, 80 35" />
    <!-- Stem -->
    <path d="M48 85 L48 98 L52 98 L52 85" />
  </g>
</svg>
